<svg width="512" height="512" viewBox="0 0 512 512" fill="none" xmlns="http://www.w3.org/2000/svg">
  <rect width="512" height="512" rx="96" fill="#050712"/>
  <defs>
    <linearGradient id="g" x1="150" y1="48" x2="366" y2="462" gradientUnits="userSpaceOnUse">
      <stop stop-color="#ff7a45"/>
      <stop offset="0.52" stop-color="#ff2f87"/>
      <stop offset="1" stop-color="#7c2be8"/>
    </linearGradient>
  </defs>
  <circle cx="256" cy="194" r="150" fill="url(#g)"/>
  <path d="M108 256h36v-60h48v60h28V126h42v130h28v-92h42v92h28v-50h42v50h26v54H108v-54Z" fill="#050712"/>
  <path d="M256 194c-72 0-130 56-130 128 0 98 130 178 130 178s130-80 130-178c0-72-58-128-130-128Z" fill="url(#g)"/>
  <circle cx="256" cy="318" r="54" fill="#050712"/>
  <path d="M138 384c42 48 194 48 236 0M178 414c34 34 122 34 156 0" stroke="url(#g)" stroke-width="22" stroke-linecap="round" opacity="0.72"/>
</svg>
